<svg xmlns="http://www.w3.org/2000/svg" viewBox="0 0 34.48 46.91"><defs><style>.cls-1{fill:#fff;}</style></defs><title>Asset 1</title><g id="Layer_2" data-name="Layer 2"><g id="Layer_1-2" data-name="Layer 1"><rect class="cls-1" x="6.34" y="12.68" width="4.6" height="34.48" transform="translate(10.76 -1.15) rotate(20)"/><rect class="cls-1" x="23.48" y="12.68" width="4.6" height="34.48" transform="translate(-8.68 10.62) rotate(-20)"/><rect class="cls-1" x="14.94" y="6.93" width="4.6" height="34.48" transform="translate(-6.93 41.41) rotate(-90)"/><rect class="cls-1" x="14.94" y="18.85" width="4.6" height="34.48" transform="translate(-18.85 53.33) rotate(-90)"/><path class="cls-1" d="M18.63,0l-.51,5.34L21.68,2l1.56,2.86-4.6,2.13,4.57,2.17L21.68,12,18.11,8.52l.53,5.4H15.81l.51-5.37L12.78,12,11.27,9.11l4.54-2.18L11.23,4.81l1.55-2.89,3.51,3.42L15.82,0Z"/></g></g></svg>